<svg width="39" height="42" viewBox="0 0 39 42" fill="none" xmlns="http://www.w3.org/2000/svg">
<path d="M28.25 1.5V10.1667M10.75 1.5V10.1667M2 18.8333H37M17.3125 27.5H19.5V34M2 10.1667C2 9.0174 2.46094 7.91519 3.28141 7.10254C4.10188 6.28988 5.21468 5.83333 6.375 5.83333H32.625C33.7853 5.83333 34.8981 6.28988 35.7186 7.10254C36.5391 7.91519 37 9.0174 37 10.1667V36.1667C37 37.3159 36.5391 38.4181 35.7186 39.2308C34.8981 40.0435 33.7853 40.5 32.625 40.5H6.375C5.21468 40.5 4.10188 40.0435 3.28141 39.2308C2.46094 38.4181 2 37.3159 2 36.1667V10.1667Z" stroke="#E8FAE8" stroke-width="3" stroke-linecap="round" stroke-linejoin="round"/>
</svg>
