<svg width="58" height="58" viewBox="0 0 58 58" fill="none" xmlns="http://www.w3.org/2000/svg">
<path d="M54.4454 24.1147C54.7477 24.7041 55.0938 25.3244 55.7196 25.6211C56.6303 26.0529 57.8308 25.4368 57.9813 24.427C58.1794 23.0979 56.7449 21.6677 56.3718 20.4379C55.8606 18.7529 55.9209 16.0816 56.1759 14.3448C56.3841 12.927 57.29 11.8063 56.1429 10.4945C55.326 9.56038 53.8891 9.24709 52.7645 8.83984C50.4109 7.98757 48.0622 7.11371 45.7259 6.21526C41.7511 4.68668 37.7559 3.20026 33.7498 1.7553C32.0651 1.14762 30.112 -0.0277447 28.2871 0.000500003C26.6042 0.0265449 24.7975 1.05609 23.2445 1.63845C19.8121 2.92554 16.3907 4.24761 12.9492 5.51013C9.79064 6.66886 6.63076 7.83077 3.49443 9.04843C2.22027 9.54311 0.579011 9.92964 0.113214 11.4047C-0.744918 14.1222 3.49975 15.0603 5.28025 15.7303C6.1676 16.0642 7.05658 16.3191 7.15062 17.3964C7.37046 19.9147 7.46107 22.9761 7.12132 25.4804C6.92946 26.8946 6.30126 28.2542 6.07514 29.6826C5.5295 33.1292 5.79085 36.7804 6.93148 40.0829C8.94992 45.9269 13.8352 50.6908 19.8828 52.1866C21.203 52.5131 22.5208 52.586 23.8748 52.584C24.5334 52.583 25.3873 52.401 26.0198 52.6012C26.6592 52.8035 26.6006 53.6224 26.6051 54.1603C26.6151 55.3566 26.614 57.0943 28.1836 57.2879C30.0443 57.5175 30.0548 55.2889 30.0756 54.0556C30.0836 53.5777 30.0743 52.938 30.5709 52.6891C31.0554 52.4463 31.7559 52.5804 32.2791 52.5832C33.4059 52.5892 34.5239 52.5933 35.6408 52.4238C38.8103 51.9428 41.8427 50.4082 44.2551 48.3191C49.6373 43.6582 51.6249 36.4608 50.5368 29.5775C50.3176 28.1904 49.7355 26.8606 49.5564 25.4804C49.3218 23.6722 49.5079 21.7348 49.5079 19.9126C49.5079 18.9655 49.1572 17.1264 49.9283 16.4184C50.3541 16.0276 52.2131 15.0487 52.5541 15.8927C52.7685 16.4232 52.6594 17.1462 52.6595 17.7065C52.6596 19.3903 52.5312 20.5193 51.7065 22.0137C51.3572 22.6465 50.8425 23.3705 50.8045 24.1144C50.7476 25.2265 51.9293 26.099 52.9655 25.6979C53.6835 25.4199 54.0772 24.7465 54.4454 24.1147ZM51.0837 11.9285V12.1386L34.6953 18.5292L30.3881 20.1955L28.182 20.865L25.8708 20.088L21.2485 18.234L5.5955 12.1386V11.9285C10.7716 9.88583 16.0389 8.04883 21.2485 6.09161C22.7558 5.52532 24.2637 4.96005 25.7658 4.3801C26.5524 4.07639 27.4278 3.588 28.2871 3.5767C29.1432 3.56545 30.0242 4.04181 30.8083 4.33898C32.3122 4.90886 33.8173 5.47959 35.3256 6.03728C40.542 7.96594 46.0298 9.61175 51.0837 11.9285ZM27.5519 6.68375C23.8468 7.60353 25.61 12.9601 29.1272 12.0653C32.7416 11.1457 31.0401 5.81783 27.5519 6.68375ZM26.6062 29.9977C23.7541 27.9711 21.42 25.8141 18.0969 24.4974C16.6271 23.9151 15.125 23.4304 13.5796 23.0929C12.8126 22.9255 11.716 22.9271 11.0586 22.4678C10.2999 21.9379 10.6317 20.0875 10.6382 19.2839C10.6407 18.9723 10.6035 18.5498 10.8037 18.2852C11.1359 17.8461 11.9332 18.2442 12.3191 18.3941C13.7914 18.9661 15.2608 19.5476 16.7312 20.125C19.0803 21.0476 21.4264 21.9798 23.7697 22.9171C24.5469 23.228 25.9926 23.518 26.4255 24.3049C26.7078 24.818 26.6059 25.5473 26.6062 26.1108V29.9977ZM30.073 29.9977L30.073 26.0057C30.0733 25.4524 29.9717 24.7137 30.3024 24.2312C30.883 23.3842 32.626 23.0305 33.5397 22.665C36.3365 21.5463 39.1546 20.4759 41.944 19.3399C42.8417 18.9743 44.561 17.885 45.5431 18.1325C45.96 18.2375 46.0089 18.7186 46.0294 19.0771C46.078 19.9265 46.2837 21.3794 45.8529 22.1431C45.5463 22.6866 44.8008 22.7222 44.255 22.824C42.9734 23.0631 41.7101 23.3909 40.4733 23.8026C36.4205 25.1516 33.3373 27.3092 30.073 29.9977ZM26.5011 41.5536C25.436 40.7135 24.4846 39.7467 23.4764 38.8409C22.9689 38.3849 22.2383 37.8905 22.0119 37.2167C21.5014 35.6971 22.7715 33.6892 21.7047 32.2562C21.0827 31.4206 19.9258 31.5639 19.4278 32.4443C19.1111 33.0042 19.1498 33.6836 19.1474 34.3049C18.0814 33.3687 17.2354 32.2108 16.4307 31.0483C15.9598 30.3681 15.5418 29.4682 14.8146 29.0228C13.8479 28.4306 12.6981 29.3716 12.7547 30.4183C12.828 31.7723 14.1895 32.9981 14.7351 34.1999C14.0319 34.1049 13.1905 34.0362 12.5359 34.3728C11.6319 34.8377 11.5562 35.9482 12.369 36.5471C13.4471 37.3414 15.263 36.8083 16.5211 37.0951C18.2026 37.4786 19.6365 39.3759 20.408 40.8183C18.6364 40.8183 16.0928 40.3551 14.4255 40.994C13.273 41.4356 13.0238 42.8854 14.2277 43.4518C14.88 43.7586 15.7155 43.6546 16.416 43.6547C17.355 43.6548 18.3182 43.7131 19.2524 43.6049C21.519 43.3424 23.7542 42.6159 25.3828 44.8231C25.7523 45.3238 26.0286 45.9038 26.2295 46.4911C26.4979 47.2757 26.5862 48.0831 26.6062 48.9074C17.715 50.5894 9.96277 43.4827 9.28073 34.7252C9.11399 32.5842 9.28824 30.5066 9.82422 28.4219C9.99168 27.7706 10.1392 26.7488 10.6869 26.296C11.1525 25.911 11.897 26.1218 12.424 26.239C13.9184 26.5712 15.4117 27.0263 16.8362 27.586C20.7169 29.1107 25.4047 32.2326 26.5792 36.5111C26.7725 37.2149 26.5638 37.903 26.5326 38.6121C26.4889 39.6039 26.6532 40.5619 26.5011 41.5536ZM29.9679 48.9074C30.1174 47.9792 30.2154 47.0585 30.563 46.176C32.2143 41.9831 36.4846 43.6548 39.948 43.6547C40.7521 43.6547 41.721 43.7812 42.4585 43.3956C43.6159 42.7904 43.5246 41.3274 42.254 40.9302C40.4936 40.3798 38.0057 40.8183 36.1661 40.8183C37.0664 39.4372 38.4804 37.513 40.1581 37.0822C41.4594 36.7481 43.1842 37.3461 44.3318 36.5458C45.1796 35.9547 45.195 34.8547 44.2359 34.3646C43.5516 34.015 42.6863 34.1629 41.944 34.0948C42.5619 32.9791 43.8022 31.7501 43.8476 30.4185C43.8825 29.3936 42.8469 28.4164 41.857 29.015C39.9328 30.1786 39.3409 32.9982 37.4267 34.3049C37.5974 33.0019 36.3569 30.3485 34.9866 32.2515C34.1124 33.4657 34.5541 36.0076 34.9054 37.3515L30.073 41.5536C30.073 40.0595 29.6555 38.0408 30.0316 36.6161C31.1668 32.3159 35.9521 29.0958 39.8429 27.5734C41.2624 27.0181 42.765 26.565 44.2551 26.2451C44.7999 26.1281 45.5815 25.892 46.0265 26.3584C46.5253 26.8812 46.6917 27.8486 46.8593 28.527C47.3261 30.4171 47.5367 32.3627 47.4201 34.3061C47.0299 40.8049 42.6891 47.2099 36.1661 48.8651C34.1023 49.3887 32.0431 49.2487 29.9679 48.9074Z" fill="white"/>
</svg>
