<svg width="53" height="51" viewBox="0 0 53 51" fill="none" xmlns="http://www.w3.org/2000/svg">
<path d="M21.0833 31.4167H17.3056M28.6389 25.75H17.3056M24.8611 20.0833H17.3056M9.75 12.5278C9.75 11.5258 10.148 10.565 10.8565 9.85649C11.565 9.14801 12.5258 8.75 13.5278 8.75H39.9722C40.9742 8.75 41.935 9.14801 42.6435 9.85649C43.352 10.565 43.75 11.5258 43.75 12.5278V38.9722C43.75 39.9742 43.352 40.935 42.6435 41.6435C41.935 42.352 40.9742 42.75 39.9722 42.75H13.5278C12.5258 42.75 11.565 42.352 10.8565 41.6435C10.148 40.935 9.75 39.9742 9.75 38.9722V12.5278Z" stroke="#E8FAE8" stroke-width="3" stroke-linecap="round" stroke-linejoin="round"/>
</svg>
