<svg width="68" height="72" viewBox="0 0 68 72" fill="none" xmlns="http://www.w3.org/2000/svg">
<path d="M37.5929 22.5855L45.4215 30.4293M48.3572 41.2146V47.0975M48.3572 52.9804V53M19 49.0585H26.8286L47.3786 28.4684C47.8927 27.9533 48.3004 27.3419 48.5786 26.669C48.8568 25.996 49 25.2748 49 24.5464C49 23.8181 48.8568 23.0968 48.5786 22.4239C48.3004 21.751 47.8927 21.1395 47.3786 20.6245C46.8646 20.1095 46.2544 19.7009 45.5828 19.4222C44.9111 19.1435 44.1913 19 43.4644 19C42.7374 19 42.0176 19.1435 41.346 19.4222C40.6743 19.7009 40.0641 20.1095 39.5501 20.6245L19 41.2146V49.0585Z" stroke="#E8FAE8" stroke-width="3" stroke-linecap="round" stroke-linejoin="round"/>
</svg>
