<svg width="54" height="52" viewBox="0 0 54 52" fill="none" xmlns="http://www.w3.org/2000/svg">
<path d="M23.65 10.634C24.502 7.122 29.498 7.122 30.35 10.634C30.4778 11.1616 30.7284 11.6516 31.0814 12.064C31.4344 12.4764 31.8798 12.7997 32.3813 13.0075C32.8828 13.2153 33.4263 13.3017 33.9676 13.2597C34.5088 13.2178 35.0325 13.0486 35.496 12.766C38.582 10.886 42.116 14.418 40.236 17.506C39.9538 17.9693 39.7849 18.4927 39.743 19.0335C39.7012 19.5744 39.7875 20.1175 39.9951 20.6188C40.2026 21.12 40.5255 21.5652 40.9375 21.9181C41.3494 22.2711 41.8389 22.5218 42.366 22.65C45.878 23.502 45.878 28.498 42.366 29.35C41.8384 29.4778 41.3484 29.7284 40.936 30.0814C40.5236 30.4344 40.2003 30.8798 39.9925 31.3813C39.7847 31.8828 39.6983 32.4263 39.7403 32.9676C39.7822 33.5088 39.9514 34.0325 40.234 34.496C42.114 37.582 38.582 41.116 35.494 39.236C35.0307 38.9538 34.5073 38.7849 33.9665 38.743C33.4256 38.7012 32.8825 38.7875 32.3812 38.9951C31.88 39.2026 31.4348 39.5255 31.0819 39.9375C30.7289 40.3494 30.4782 40.8389 30.35 41.366C29.498 44.878 24.502 44.878 23.65 41.366C23.5222 40.8384 23.2716 40.3484 22.9186 39.936C22.5656 39.5236 22.1202 39.2003 21.6187 38.9925C21.1172 38.7847 20.5737 38.6983 20.0324 38.7403C19.4912 38.7822 18.9675 38.9514 18.504 39.234C15.418 41.114 11.884 37.582 13.764 34.494C14.0462 34.0307 14.2151 33.5073 14.257 32.9665C14.2988 32.4256 14.2125 31.8825 14.0049 31.3812C13.7974 30.88 13.4745 30.4348 13.0625 30.0819C12.6506 29.7289 12.1611 29.4782 11.634 29.35C8.122 28.498 8.122 23.502 11.634 22.65C12.1616 22.5222 12.6516 22.2716 13.064 21.9186C13.4764 21.5656 13.7997 21.1202 14.0075 20.6187C14.2153 20.1172 14.3017 19.5737 14.2597 19.0324C14.2178 18.4912 14.0486 17.9675 13.766 17.504C11.886 14.418 15.418 10.884 18.506 12.764C20.506 13.98 23.098 12.904 23.65 10.634Z" stroke="#E8FAE8" stroke-width="3" stroke-linecap="round" stroke-linejoin="round"/>
<path d="M21 26C21 27.5913 21.6321 29.1174 22.7574 30.2426C23.8826 31.3679 25.4087 32 27 32C28.5913 32 30.1174 31.3679 31.2426 30.2426C32.3679 29.1174 33 27.5913 33 26C33 24.4087 32.3679 22.8826 31.2426 21.7574C30.1174 20.6321 28.5913 20 27 20C25.4087 20 23.8826 20.6321 22.7574 21.7574C21.6321 22.8826 21 24.4087 21 26Z" stroke="#E8FAE8" stroke-width="3" stroke-linecap="round" stroke-linejoin="round"/>
</svg>
