<svg width="55" height="52" viewBox="0 0 55 52" fill="none" xmlns="http://www.w3.org/2000/svg">
<path d="M13.5871 26.125H9.61194L27.5 8.5L45.3881 26.125H41.4129M13.5871 26.125V39.8333C13.5871 40.8721 14.0059 41.8683 14.7513 42.6028C15.4968 43.3374 16.5079 43.75 17.5622 43.75H37.4378C38.4921 43.75 39.5032 43.3374 40.2486 42.6028C40.9941 41.8683 41.4129 40.8721 41.4129 39.8333V26.125" stroke="#E8FAE8" stroke-width="3" stroke-linecap="round" stroke-linejoin="round"/>
<path d="M21.5373 43.75V32C21.5373 30.9613 21.9561 29.9651 22.7016 29.2305C23.4471 28.496 24.4582 28.0834 25.5124 28.0834H29.4876C30.5418 28.0834 31.5529 28.496 32.2984 29.2305C33.0439 29.9651 33.4627 30.9613 33.4627 32V43.75" stroke="#E8FAE8" stroke-width="3" stroke-linecap="round" stroke-linejoin="round"/>
</svg>
